<svg width="1920" height="736" viewBox="0 0 1920 736" fill="none" xmlns="http://www.w3.org/2000/svg">
<g clip-path="url(#clip0_2492_17207)">
<g opacity="0.4" clip-path="url(#clip1_2492_17207)">
<path d="M1917.09 573C1845.73 573 1788 630.727 1788 702.089C1788 773.273 1845.73 831.177 1917.09 831.177C1988.27 831.177 2046.18 773.45 2046.18 702.089C2046 630.727 1988.27 573 1917.09 573ZM1917.09 822.855C1850.33 822.855 1796.32 768.846 1796.32 702.089C1796.32 635.331 1850.33 581.323 1917.09 581.323C1983.85 581.323 2037.85 635.331 2037.85 702.089C2037.85 768.669 1983.67 822.855 1917.09 822.855Z" fill="white"/>
<path d="M1917.09 600.801C1861.31 600.801 1815.98 646.132 1815.98 701.911C1815.98 757.69 1861.31 803.022 1917.09 803.022C1972.87 803.022 2018.2 757.867 2018.2 702.088C2018.2 646.132 1972.87 600.801 1917.09 600.801ZM1917.09 787.616C1869.81 787.616 1831.38 749.191 1831.38 701.911C1831.38 654.632 1869.81 616.206 1917.09 616.206C1964.37 616.206 2002.79 654.632 2002.79 701.911C2002.79 749.191 1964.37 787.616 1917.09 787.616Z" fill="white"/>
</g>
<g opacity="0.6">
<path d="M1247.83 156.225C1258.29 156.225 1266.8 147.635 1266.8 137.09C1266.8 126.545 1258.29 117.954 1247.83 117.954L1247.83 156.225Z" fill="white"/>
<path d="M1218.24 156.225C1228.69 156.225 1237.21 147.635 1237.21 137.09C1237.21 126.545 1228.69 117.954 1218.24 117.954L1218.24 156.225Z" fill="white"/>
<path d="M1188.65 156.225C1199.1 156.225 1207.62 147.635 1207.62 137.09C1207.62 126.545 1199.1 117.954 1188.65 117.954L1188.65 156.225Z" fill="white"/>
</g>
<g opacity="0.6" clip-path="url(#clip2_2492_17207)">
<path d="M132.539 55C100.731 55 75 80.731 75 112.539C75 144.269 100.731 170.079 132.539 170.079C164.269 170.079 190.079 144.348 190.079 112.539C190 80.731 164.269 55 132.539 55ZM132.539 166.369C102.783 166.369 78.7097 142.296 78.7097 112.539C78.7097 82.7831 102.783 58.7097 132.539 58.7097C162.296 58.7097 186.369 82.7831 186.369 112.539C186.369 142.217 162.217 166.369 132.539 166.369Z" fill="white"/>
<path d="M132.539 67.3926C107.677 67.3926 87.4707 87.5985 87.4707 112.461C87.4707 137.324 107.677 157.53 132.539 157.53C157.402 157.53 177.608 137.403 177.608 112.54C177.608 87.5985 157.402 67.3926 132.539 67.3926ZM132.539 150.663C111.465 150.663 94.3376 133.535 94.3376 112.461C94.3376 91.3871 111.465 74.2594 132.539 74.2594C153.613 74.2594 170.741 91.3871 170.741 112.461C170.741 133.535 153.613 150.663 132.539 150.663Z" fill="white"/>
<path d="M132.54 87.2031C118.569 87.2031 107.204 98.5689 107.204 112.539C107.204 126.51 118.491 137.876 132.54 137.876C146.51 137.876 157.876 126.51 157.876 112.539C157.797 98.5689 146.51 87.2031 132.54 87.2031ZM132.54 126.115C125.042 126.115 118.964 120.038 118.964 112.539C118.964 105.041 125.042 98.9636 132.54 98.9636C140.038 98.9636 146.116 105.041 146.116 112.539C146.116 120.038 140.038 126.115 132.54 126.115Z" fill="white"/>
</g>
<g clip-path="url(#clip3_2492_17207)">
<path d="M347.08 563.86C347.08 565.025 346.206 565.898 345.04 565.898C343.874 565.898 343 565.025 343 563.86C343 562.696 343.874 561.822 345.04 561.822C346.206 561.822 347.08 562.793 347.08 563.86Z" fill="white"/>
<path d="M364.469 563.86C364.469 565.025 363.595 565.898 362.429 565.898C361.263 565.898 360.389 565.025 360.389 563.86C360.389 562.696 361.263 561.822 362.429 561.822C363.498 561.822 364.469 562.793 364.469 563.86Z" fill="white"/>
<path d="M381.762 563.86C381.762 565.025 380.887 565.898 379.722 565.898C378.556 565.898 377.682 565.025 377.682 563.86C377.682 562.696 378.556 561.822 379.722 561.822C380.887 561.822 381.762 562.793 381.762 563.86Z" fill="white"/>
<path d="M399.151 563.86C399.151 565.025 398.277 565.898 397.111 565.898C395.945 565.898 395.071 565.025 395.071 563.86C395.071 562.696 395.945 561.822 397.111 561.822C398.277 561.822 399.151 562.793 399.151 563.86Z" fill="white"/>
<path d="M416.54 563.86C416.54 565.025 415.666 565.898 414.5 565.898C413.334 565.898 412.46 565.025 412.46 563.86C412.46 562.696 413.334 561.822 414.5 561.822C415.569 561.822 416.54 562.793 416.54 563.86Z" fill="white"/>
<path d="M433.929 563.86C433.929 565.025 433.055 565.898 431.889 565.898C430.723 565.898 429.849 565.025 429.849 563.86C429.849 562.696 430.723 561.822 431.889 561.822C433.055 561.822 433.929 562.793 433.929 563.86Z" fill="white"/>
<path d="M451.222 563.86C451.222 565.025 450.347 565.898 449.182 565.898C448.016 565.898 447.142 565.025 447.142 563.86C447.142 562.696 448.016 561.822 449.182 561.822C450.347 561.822 451.222 562.793 451.222 563.86Z" fill="white"/>
<path d="M468.611 563.86C468.611 565.025 467.737 565.898 466.571 565.898C465.405 565.898 464.531 565.025 464.531 563.86C464.531 562.696 465.405 561.822 466.571 561.822C467.737 561.822 468.611 562.793 468.611 563.86Z" fill="white"/>
<path d="M486 563.86C486 565.025 485.126 565.898 483.96 565.898C482.794 565.898 481.92 565.025 481.92 563.86C481.92 562.696 482.794 561.822 483.96 561.822C485.029 561.822 486 562.793 486 563.86Z" fill="white"/>
<path d="M347.08 578.319C347.08 579.484 346.206 580.357 345.04 580.357C343.874 580.357 343 579.484 343 578.319C343 577.155 343.874 576.281 345.04 576.281C346.206 576.281 347.08 577.155 347.08 578.319Z" fill="white"/>
<path d="M364.469 578.319C364.469 579.484 363.595 580.357 362.429 580.357C361.263 580.357 360.389 579.484 360.389 578.319C360.389 577.155 361.263 576.281 362.429 576.281C363.498 576.281 364.469 577.155 364.469 578.319Z" fill="white"/>
<path d="M381.762 578.319C381.762 579.484 380.887 580.357 379.722 580.357C378.556 580.357 377.682 579.484 377.682 578.319C377.682 577.155 378.556 576.281 379.722 576.281C380.887 576.281 381.762 577.155 381.762 578.319Z" fill="white"/>
<path d="M399.151 578.319C399.151 579.484 398.277 580.357 397.111 580.357C395.945 580.357 395.071 579.484 395.071 578.319C395.071 577.155 395.945 576.281 397.111 576.281C398.277 576.281 399.151 577.155 399.151 578.319Z" fill="white"/>
<path d="M416.54 578.319C416.54 579.484 415.666 580.357 414.5 580.357C413.334 580.357 412.46 579.484 412.46 578.319C412.46 577.155 413.334 576.281 414.5 576.281C415.569 576.281 416.54 577.155 416.54 578.319Z" fill="white"/>
<path d="M433.929 578.319C433.929 579.484 433.055 580.357 431.889 580.357C430.723 580.357 429.849 579.484 429.849 578.319C429.849 577.155 430.723 576.281 431.889 576.281C433.055 576.281 433.929 577.155 433.929 578.319Z" fill="white"/>
<path d="M451.222 578.319C451.222 579.484 450.347 580.357 449.182 580.357C448.016 580.357 447.142 579.484 447.142 578.319C447.142 577.155 448.016 576.281 449.182 576.281C450.347 576.281 451.222 577.155 451.222 578.319Z" fill="white"/>
<path d="M468.611 578.319C468.611 579.484 467.737 580.357 466.571 580.357C465.405 580.357 464.531 579.484 464.531 578.319C464.531 577.155 465.405 576.281 466.571 576.281C467.737 576.281 468.611 577.155 468.611 578.319Z" fill="white"/>
<path d="M486 578.319C486 579.484 485.126 580.357 483.96 580.357C482.794 580.357 481.92 579.484 481.92 578.319C481.92 577.155 482.794 576.281 483.96 576.281C485.029 576.281 486 577.155 486 578.319Z" fill="white"/>
<path d="M347.08 535.038C347.08 536.202 346.206 537.076 345.04 537.076C343.874 537.076 343 536.202 343 535.038C343 533.873 343.874 533 345.04 533C346.206 533 347.08 533.873 347.08 535.038Z" fill="white"/>
<path d="M364.469 535.038C364.469 536.202 363.595 537.076 362.429 537.076C361.263 537.076 360.389 536.202 360.389 535.038C360.389 533.873 361.263 533 362.429 533C363.498 533 364.469 533.873 364.469 535.038Z" fill="white"/>
<path d="M381.762 535.038C381.762 536.202 380.887 537.076 379.722 537.076C378.556 537.076 377.682 536.202 377.682 535.038C377.682 533.873 378.653 533 379.722 533C380.887 533 381.762 533.873 381.762 535.038Z" fill="white"/>
<path d="M399.151 535.038C399.151 536.202 398.277 537.076 397.111 537.076C395.945 537.076 395.071 536.202 395.071 535.038C395.071 533.873 396.042 533 397.111 533C398.179 533 399.151 533.873 399.151 535.038Z" fill="white"/>
<path d="M416.54 535.038C416.54 536.202 415.666 537.076 414.5 537.076C413.334 537.076 412.46 536.202 412.46 535.038C412.46 533.873 413.334 533 414.5 533C415.569 533 416.54 533.873 416.54 535.038Z" fill="white"/>
<path d="M433.929 535.038C433.929 536.202 433.055 537.076 431.889 537.076C430.723 537.076 429.849 536.202 429.849 535.038C429.849 533.873 430.723 533 431.889 533C433.055 533 433.929 533.873 433.929 535.038Z" fill="white"/>
<path d="M451.222 535.038C451.222 536.202 450.347 537.076 449.182 537.076C448.016 537.076 447.142 536.202 447.142 535.038C447.142 533.873 448.016 533 449.182 533C450.347 533 451.222 533.873 451.222 535.038Z" fill="white"/>
<path d="M468.611 535.038C468.611 536.202 467.737 537.076 466.571 537.076C465.405 537.076 464.531 536.202 464.531 535.038C464.531 533.873 465.405 533 466.571 533C467.737 533 468.611 533.873 468.611 535.038Z" fill="white"/>
<path d="M486 535.038C486 536.202 485.126 537.076 483.96 537.076C482.794 537.076 481.92 536.202 481.92 535.038C481.92 533.873 482.794 533 483.96 533C485.029 533 486 533.873 486 535.038Z" fill="white"/>
<path d="M347.08 549.497C347.08 550.661 346.206 551.535 345.04 551.535C343.874 551.535 343 550.564 343 549.497C343 548.332 343.874 547.459 345.04 547.459C346.206 547.459 347.08 548.332 347.08 549.497Z" fill="white"/>
<path d="M364.469 549.497C364.469 550.661 363.595 551.535 362.429 551.535C361.263 551.535 360.389 550.661 360.389 549.497C360.389 548.332 361.263 547.459 362.429 547.459C363.498 547.459 364.469 548.332 364.469 549.497Z" fill="white"/>
<path d="M381.762 549.497C381.762 550.661 380.887 551.535 379.722 551.535C378.556 551.535 377.682 550.661 377.682 549.497C377.682 548.332 378.556 547.459 379.722 547.459C380.887 547.459 381.762 548.332 381.762 549.497Z" fill="white"/>
<path d="M399.151 549.497C399.151 550.661 398.277 551.535 397.111 551.535C395.945 551.535 395.071 550.661 395.071 549.497C395.071 548.332 395.945 547.459 397.111 547.459C398.277 547.459 399.151 548.332 399.151 549.497Z" fill="white"/>
<path d="M416.54 549.497C416.54 550.661 415.666 551.535 414.5 551.535C413.334 551.535 412.46 550.661 412.46 549.497C412.46 548.332 413.334 547.459 414.5 547.459C415.569 547.459 416.54 548.332 416.54 549.497Z" fill="white"/>
<path d="M433.929 549.497C433.929 550.661 433.055 551.535 431.889 551.535C430.723 551.535 429.849 550.661 429.849 549.497C429.849 548.332 430.723 547.459 431.889 547.459C433.055 547.459 433.929 548.332 433.929 549.497Z" fill="white"/>
<path d="M451.222 549.497C451.222 550.661 450.347 551.535 449.182 551.535C448.016 551.535 447.142 550.661 447.142 549.497C447.142 548.332 448.016 547.459 449.182 547.459C450.347 547.459 451.222 548.332 451.222 549.497Z" fill="white"/>
<path d="M468.611 549.497C468.611 550.661 467.737 551.535 466.571 551.535C465.405 551.535 464.531 550.661 464.531 549.497C464.531 548.332 465.405 547.459 466.571 547.459C467.737 547.459 468.611 548.332 468.611 549.497Z" fill="white"/>
<path d="M486 549.497C486 550.661 485.126 551.535 483.96 551.535C482.794 551.535 481.92 550.661 481.92 549.497C481.92 548.332 482.794 547.459 483.96 547.459C485.029 547.459 486 548.332 486 549.497Z" fill="white"/>
<path d="M347.08 592.68C347.08 593.845 346.206 594.718 345.04 594.718C343.874 594.718 343 593.845 343 592.68C343 591.516 343.874 590.643 345.04 590.643C346.206 590.643 347.08 591.613 347.08 592.68Z" fill="white"/>
<path d="M364.469 592.68C364.469 593.845 363.595 594.718 362.429 594.718C361.263 594.718 360.389 593.845 360.389 592.68C360.389 591.516 361.263 590.643 362.429 590.643C363.498 590.643 364.469 591.613 364.469 592.68Z" fill="white"/>
<path d="M381.762 592.68C381.762 593.845 380.887 594.718 379.722 594.718C378.556 594.718 377.682 593.845 377.682 592.68C377.682 591.516 378.556 590.643 379.722 590.643C380.887 590.643 381.762 591.613 381.762 592.68Z" fill="white"/>
<path d="M399.151 592.68C399.151 593.845 398.277 594.718 397.111 594.718C395.945 594.718 395.071 593.845 395.071 592.68C395.071 591.516 395.945 590.643 397.111 590.643C398.277 590.643 399.151 591.613 399.151 592.68Z" fill="white"/>
<path d="M416.54 592.68C416.54 593.845 415.666 594.718 414.5 594.718C413.334 594.718 412.46 593.845 412.46 592.68C412.46 591.516 413.334 590.643 414.5 590.643C415.569 590.643 416.54 591.613 416.54 592.68Z" fill="white"/>
<path d="M433.929 592.68C433.929 593.845 433.055 594.718 431.889 594.718C430.723 594.718 429.849 593.845 429.849 592.68C429.849 591.516 430.723 590.643 431.889 590.643C433.055 590.643 433.929 591.613 433.929 592.68Z" fill="white"/>
<path d="M451.222 592.68C451.222 593.845 450.347 594.718 449.182 594.718C448.016 594.718 447.142 593.845 447.142 592.68C447.142 591.516 448.016 590.643 449.182 590.643C450.347 590.643 451.222 591.613 451.222 592.68Z" fill="white"/>
<path d="M468.611 592.68C468.611 593.845 467.737 594.718 466.571 594.718C465.405 594.718 464.531 593.845 464.531 592.68C464.531 591.516 465.405 590.643 466.571 590.643C467.737 590.643 468.611 591.613 468.611 592.68Z" fill="white"/>
<path d="M486 592.68C486 593.845 485.126 594.718 483.96 594.718C482.794 594.718 481.92 593.845 481.92 592.68C481.92 591.516 482.794 590.643 483.96 590.643C485.029 590.643 486 591.613 486 592.68Z" fill="white"/>
<path d="M347.08 607.139C347.08 608.304 346.206 609.177 345.04 609.177C343.874 609.177 343 608.304 343 607.139C343 605.975 343.874 605.102 345.04 605.102C346.206 605.102 347.08 605.975 347.08 607.139Z" fill="white"/>
<path d="M364.469 607.139C364.469 608.304 363.595 609.177 362.429 609.177C361.263 609.177 360.389 608.304 360.389 607.139C360.389 605.975 361.263 605.102 362.429 605.102C363.498 605.102 364.469 605.975 364.469 607.139Z" fill="white"/>
<path d="M381.762 607.139C381.762 608.304 380.887 609.177 379.722 609.177C378.556 609.177 377.682 608.304 377.682 607.139C377.682 605.975 378.556 605.102 379.722 605.102C380.887 605.102 381.762 605.975 381.762 607.139Z" fill="white"/>
<path d="M397.111 609.177C398.238 609.177 399.151 608.265 399.151 607.139C399.151 606.014 398.238 605.102 397.111 605.102C395.984 605.102 395.071 606.014 395.071 607.139C395.071 608.265 395.984 609.177 397.111 609.177Z" fill="white"/>
<path d="M416.54 607.139C416.54 608.304 415.666 609.177 414.5 609.177C413.334 609.177 412.46 608.304 412.46 607.139C412.46 605.975 413.334 605.102 414.5 605.102C415.569 605.102 416.54 605.975 416.54 607.139Z" fill="white"/>
<path d="M433.929 607.139C433.929 608.304 433.055 609.177 431.889 609.177C430.723 609.177 429.849 608.304 429.849 607.139C429.849 605.975 430.723 605.102 431.889 605.102C433.055 605.102 433.929 605.975 433.929 607.139Z" fill="white"/>
<path d="M451.222 607.139C451.222 608.304 450.347 609.177 449.182 609.177C448.016 609.177 447.142 608.304 447.142 607.139C447.142 605.975 448.016 605.102 449.182 605.102C450.347 605.102 451.222 605.975 451.222 607.139Z" fill="white"/>
<path d="M466.571 609.177C467.698 609.177 468.611 608.265 468.611 607.139C468.611 606.014 467.698 605.102 466.571 605.102C465.444 605.102 464.531 606.014 464.531 607.139C464.531 608.265 465.444 609.177 466.571 609.177Z" fill="white"/>
<path d="M486 607.139C486 608.304 485.126 609.177 483.96 609.177C482.794 609.177 481.92 608.304 481.92 607.139C481.92 605.975 482.794 605.102 483.96 605.102C485.029 605.102 486 605.975 486 607.139Z" fill="white"/>
<path d="M347.08 621.6C347.08 622.765 346.206 623.638 345.04 623.638C343.874 623.638 343 622.765 343 621.6C343 620.436 343.874 619.562 345.04 619.562C346.206 619.562 347.08 620.436 347.08 621.6Z" fill="white"/>
<path d="M364.469 621.6C364.469 622.765 363.595 623.638 362.429 623.638C361.263 623.638 360.389 622.765 360.389 621.6C360.389 620.436 361.263 619.562 362.429 619.562C363.498 619.562 364.469 620.436 364.469 621.6Z" fill="white"/>
<path d="M381.762 621.6C381.762 622.765 380.887 623.638 379.722 623.638C378.556 623.638 377.682 622.765 377.682 621.6C377.682 620.436 378.556 619.562 379.722 619.562C380.887 619.562 381.762 620.436 381.762 621.6Z" fill="white"/>
<path d="M399.151 621.6C399.151 622.765 398.277 623.638 397.111 623.638C395.945 623.638 395.071 622.765 395.071 621.6C395.071 620.436 395.945 619.562 397.111 619.562C398.277 619.562 399.151 620.436 399.151 621.6Z" fill="white"/>
<path d="M416.54 621.6C416.54 622.765 415.666 623.638 414.5 623.638C413.334 623.638 412.46 622.765 412.46 621.6C412.46 620.436 413.334 619.562 414.5 619.562C415.569 619.562 416.54 620.436 416.54 621.6Z" fill="white"/>
<path d="M433.929 621.6C433.929 622.765 433.055 623.638 431.889 623.638C430.723 623.638 429.849 622.765 429.849 621.6C429.849 620.436 430.723 619.562 431.889 619.562C433.055 619.562 433.929 620.436 433.929 621.6Z" fill="white"/>
<path d="M451.222 621.6C451.222 622.765 450.347 623.638 449.182 623.638C448.016 623.638 447.142 622.765 447.142 621.6C447.142 620.436 448.016 619.562 449.182 619.562C450.347 619.562 451.222 620.436 451.222 621.6Z" fill="white"/>
<path d="M468.611 621.6C468.611 622.765 467.737 623.638 466.571 623.638C465.405 623.638 464.531 622.765 464.531 621.6C464.531 620.436 465.405 619.562 466.571 619.562C467.737 619.562 468.611 620.436 468.611 621.6Z" fill="white"/>
<path d="M486 621.6C486 622.765 485.126 623.638 483.96 623.638C482.794 623.638 481.92 622.765 481.92 621.6C481.92 620.436 482.794 619.562 483.96 619.562C485.029 619.562 486 620.436 486 621.6Z" fill="white"/>
<path d="M347.08 635.962C347.08 637.126 346.206 638 345.04 638C343.874 638 343 637.126 343 635.962C343 634.797 343.874 633.924 345.04 633.924C346.206 633.924 347.08 634.894 347.08 635.962Z" fill="white"/>
<path d="M364.469 635.962C364.469 637.126 363.595 638 362.429 638C361.263 638 360.389 637.126 360.389 635.962C360.389 634.797 361.263 633.924 362.429 633.924C363.498 633.924 364.469 634.894 364.469 635.962Z" fill="white"/>
<path d="M381.762 635.962C381.762 637.126 380.887 638 379.722 638C378.556 638 377.682 637.126 377.682 635.962C377.682 634.797 378.556 633.924 379.722 633.924C380.887 633.924 381.762 634.894 381.762 635.962Z" fill="white"/>
<path d="M399.151 635.962C399.151 637.126 398.277 638 397.111 638C395.945 638 395.071 637.126 395.071 635.962C395.071 634.797 395.945 633.924 397.111 633.924C398.277 633.924 399.151 634.894 399.151 635.962Z" fill="white"/>
<path d="M416.54 635.962C416.54 637.126 415.666 638 414.5 638C413.334 638 412.46 637.126 412.46 635.962C412.46 634.797 413.334 633.924 414.5 633.924C415.569 633.924 416.54 634.894 416.54 635.962Z" fill="white"/>
<path d="M433.929 635.962C433.929 637.126 433.055 638 431.889 638C430.723 638 429.849 637.126 429.849 635.962C429.849 634.797 430.723 633.924 431.889 633.924C433.055 633.924 433.929 634.894 433.929 635.962Z" fill="white"/>
<path d="M451.222 635.962C451.222 637.126 450.347 638 449.182 638C448.016 638 447.142 637.126 447.142 635.962C447.142 634.797 448.016 633.924 449.182 633.924C450.347 633.924 451.222 634.894 451.222 635.962Z" fill="white"/>
<path d="M468.611 635.962C468.611 637.126 467.737 638 466.571 638C465.405 638 464.531 637.126 464.531 635.962C464.531 634.797 465.405 633.924 466.571 633.924C467.737 633.924 468.611 634.894 468.611 635.962Z" fill="white"/>
<path d="M486 635.962C486 637.126 485.126 638 483.96 638C482.794 638 481.92 637.126 481.92 635.962C481.92 634.797 482.794 633.924 483.96 633.924C485.029 633.924 486 634.894 486 635.962Z" fill="white"/>
</g>
</g>
<defs>
<clipPath id="clip0_2492_17207">
<rect width="1920" height="736" fill="white"/>
</clipPath>
<clipPath id="clip1_2492_17207">
<rect width="258" height="258" fill="white" transform="translate(1788 573)"/>
</clipPath>
<clipPath id="clip2_2492_17207">
<rect width="115" height="115" fill="white" transform="translate(75 55)"/>
</clipPath>
<clipPath id="clip3_2492_17207">
<rect width="143" height="105" fill="white" transform="translate(343 533)"/>
</clipPath>
</defs>
</svg>
