<svg width="1920" height="1256" viewBox="0 0 1920 1256" fill="none" xmlns="http://www.w3.org/2000/svg">
<g clip-path="url(#clip0_2492_20165)">
<g opacity="0.6">
<path d="M168.824 877.717L180 877.717L180 848L150.283 848L150.283 859.091L168.824 859.091L168.824 877.717Z" fill="white"/>
<path d="M148.76 897.782L159.851 897.782L159.851 868.064L130.218 868.064L130.218 879.24L148.76 879.24L148.76 897.782Z" fill="white"/>
<path d="M128.606 917.849L139.782 917.849L139.782 888.217L110.064 888.217L110.064 899.308L128.606 899.308L128.606 917.849Z" fill="white"/>
<path d="M108.542 937.999L119.717 937.999L119.717 908.281L90 908.281L90 919.457L108.542 919.457L108.542 937.999Z" fill="white"/>
</g>
<g opacity="0.4" clip-path="url(#clip1_2492_20165)">
<path d="M1917.09 593C1845.73 593 1788 650.727 1788 722.089C1788 793.273 1845.73 851.177 1917.09 851.177C1988.27 851.177 2046.18 793.45 2046.18 722.089C2046 650.727 1988.27 593 1917.09 593ZM1917.09 842.855C1850.33 842.855 1796.32 788.846 1796.32 722.089C1796.32 655.331 1850.33 601.323 1917.09 601.323C1983.85 601.323 2037.85 655.331 2037.85 722.089C2037.85 788.669 1983.67 842.855 1917.09 842.855Z" fill="white"/>
<path d="M1917.09 620.801C1861.31 620.801 1815.98 666.132 1815.98 721.911C1815.98 777.69 1861.31 823.022 1917.09 823.022C1972.87 823.022 2018.2 777.867 2018.2 722.088C2018.2 666.132 1972.87 620.801 1917.09 620.801ZM1917.09 807.616C1869.81 807.616 1831.38 769.191 1831.38 721.911C1831.38 674.632 1869.81 636.206 1917.09 636.206C1964.37 636.206 2002.79 674.632 2002.79 721.911C2002.79 769.191 1964.37 807.616 1917.09 807.616Z" fill="white"/>
</g>
<g clip-path="url(#clip2_2492_20165)">
<path d="M347.08 583.86C347.08 585.025 346.206 585.898 345.04 585.898C343.874 585.898 343 585.025 343 583.86C343 582.696 343.874 581.822 345.04 581.822C346.206 581.822 347.08 582.793 347.08 583.86Z" fill="white"/>
<path d="M364.469 583.86C364.469 585.025 363.595 585.898 362.429 585.898C361.263 585.898 360.389 585.025 360.389 583.86C360.389 582.696 361.263 581.822 362.429 581.822C363.498 581.822 364.469 582.793 364.469 583.86Z" fill="white"/>
<path d="M381.762 583.86C381.762 585.025 380.887 585.898 379.722 585.898C378.556 585.898 377.682 585.025 377.682 583.86C377.682 582.696 378.556 581.822 379.722 581.822C380.887 581.822 381.762 582.793 381.762 583.86Z" fill="white"/>
<path d="M399.151 583.86C399.151 585.025 398.277 585.898 397.111 585.898C395.945 585.898 395.071 585.025 395.071 583.86C395.071 582.696 395.945 581.822 397.111 581.822C398.277 581.822 399.151 582.793 399.151 583.86Z" fill="white"/>
<path d="M416.54 583.86C416.54 585.025 415.666 585.898 414.5 585.898C413.334 585.898 412.46 585.025 412.46 583.86C412.46 582.696 413.334 581.822 414.5 581.822C415.569 581.822 416.54 582.793 416.54 583.86Z" fill="white"/>
<path d="M433.929 583.86C433.929 585.025 433.055 585.898 431.889 585.898C430.723 585.898 429.849 585.025 429.849 583.86C429.849 582.696 430.723 581.822 431.889 581.822C433.055 581.822 433.929 582.793 433.929 583.86Z" fill="white"/>
<path d="M451.222 583.86C451.222 585.025 450.347 585.898 449.182 585.898C448.016 585.898 447.142 585.025 447.142 583.86C447.142 582.696 448.016 581.822 449.182 581.822C450.347 581.822 451.222 582.793 451.222 583.86Z" fill="white"/>
<path d="M468.611 583.86C468.611 585.025 467.737 585.898 466.571 585.898C465.405 585.898 464.531 585.025 464.531 583.86C464.531 582.696 465.405 581.822 466.571 581.822C467.737 581.822 468.611 582.793 468.611 583.86Z" fill="white"/>
<path d="M486 583.86C486 585.025 485.126 585.898 483.96 585.898C482.794 585.898 481.92 585.025 481.92 583.86C481.92 582.696 482.794 581.822 483.96 581.822C485.029 581.822 486 582.793 486 583.86Z" fill="white"/>
<path d="M347.08 598.319C347.08 599.484 346.206 600.357 345.04 600.357C343.874 600.357 343 599.484 343 598.319C343 597.155 343.874 596.281 345.04 596.281C346.206 596.281 347.08 597.155 347.08 598.319Z" fill="white"/>
<path d="M364.469 598.319C364.469 599.484 363.595 600.357 362.429 600.357C361.263 600.357 360.389 599.484 360.389 598.319C360.389 597.155 361.263 596.281 362.429 596.281C363.498 596.281 364.469 597.155 364.469 598.319Z" fill="white"/>
<path d="M381.762 598.319C381.762 599.484 380.887 600.357 379.722 600.357C378.556 600.357 377.682 599.484 377.682 598.319C377.682 597.155 378.556 596.281 379.722 596.281C380.887 596.281 381.762 597.155 381.762 598.319Z" fill="white"/>
<path d="M399.151 598.319C399.151 599.484 398.277 600.357 397.111 600.357C395.945 600.357 395.071 599.484 395.071 598.319C395.071 597.155 395.945 596.281 397.111 596.281C398.277 596.281 399.151 597.155 399.151 598.319Z" fill="white"/>
<path d="M416.54 598.319C416.54 599.484 415.666 600.357 414.5 600.357C413.334 600.357 412.46 599.484 412.46 598.319C412.46 597.155 413.334 596.281 414.5 596.281C415.569 596.281 416.54 597.155 416.54 598.319Z" fill="white"/>
<path d="M433.929 598.319C433.929 599.484 433.055 600.357 431.889 600.357C430.723 600.357 429.849 599.484 429.849 598.319C429.849 597.155 430.723 596.281 431.889 596.281C433.055 596.281 433.929 597.155 433.929 598.319Z" fill="white"/>
<path d="M451.222 598.319C451.222 599.484 450.347 600.357 449.182 600.357C448.016 600.357 447.142 599.484 447.142 598.319C447.142 597.155 448.016 596.281 449.182 596.281C450.347 596.281 451.222 597.155 451.222 598.319Z" fill="white"/>
<path d="M468.611 598.319C468.611 599.484 467.737 600.357 466.571 600.357C465.405 600.357 464.531 599.484 464.531 598.319C464.531 597.155 465.405 596.281 466.571 596.281C467.737 596.281 468.611 597.155 468.611 598.319Z" fill="white"/>
<path d="M486 598.319C486 599.484 485.126 600.357 483.96 600.357C482.794 600.357 481.92 599.484 481.92 598.319C481.92 597.155 482.794 596.281 483.96 596.281C485.029 596.281 486 597.155 486 598.319Z" fill="white"/>
<path d="M347.08 555.038C347.08 556.202 346.206 557.076 345.04 557.076C343.874 557.076 343 556.202 343 555.038C343 553.873 343.874 553 345.04 553C346.206 553 347.08 553.873 347.08 555.038Z" fill="white"/>
<path d="M364.469 555.038C364.469 556.202 363.595 557.076 362.429 557.076C361.263 557.076 360.389 556.202 360.389 555.038C360.389 553.873 361.263 553 362.429 553C363.498 553 364.469 553.873 364.469 555.038Z" fill="white"/>
<path d="M381.762 555.038C381.762 556.202 380.887 557.076 379.722 557.076C378.556 557.076 377.682 556.202 377.682 555.038C377.682 553.873 378.653 553 379.722 553C380.887 553 381.762 553.873 381.762 555.038Z" fill="white"/>
<path d="M399.151 555.038C399.151 556.202 398.277 557.076 397.111 557.076C395.945 557.076 395.071 556.202 395.071 555.038C395.071 553.873 396.042 553 397.111 553C398.179 553 399.151 553.873 399.151 555.038Z" fill="white"/>
<path d="M416.54 555.038C416.54 556.202 415.666 557.076 414.5 557.076C413.334 557.076 412.46 556.202 412.46 555.038C412.46 553.873 413.334 553 414.5 553C415.569 553 416.54 553.873 416.54 555.038Z" fill="white"/>
<path d="M433.929 555.038C433.929 556.202 433.055 557.076 431.889 557.076C430.723 557.076 429.849 556.202 429.849 555.038C429.849 553.873 430.723 553 431.889 553C433.055 553 433.929 553.873 433.929 555.038Z" fill="white"/>
<path d="M451.222 555.038C451.222 556.202 450.347 557.076 449.182 557.076C448.016 557.076 447.142 556.202 447.142 555.038C447.142 553.873 448.016 553 449.182 553C450.347 553 451.222 553.873 451.222 555.038Z" fill="white"/>
<path d="M468.611 555.038C468.611 556.202 467.737 557.076 466.571 557.076C465.405 557.076 464.531 556.202 464.531 555.038C464.531 553.873 465.405 553 466.571 553C467.737 553 468.611 553.873 468.611 555.038Z" fill="white"/>
<path d="M486 555.038C486 556.202 485.126 557.076 483.96 557.076C482.794 557.076 481.92 556.202 481.92 555.038C481.92 553.873 482.794 553 483.96 553C485.029 553 486 553.873 486 555.038Z" fill="white"/>
<path d="M347.08 569.497C347.08 570.661 346.206 571.535 345.04 571.535C343.874 571.535 343 570.564 343 569.497C343 568.332 343.874 567.459 345.04 567.459C346.206 567.459 347.08 568.332 347.08 569.497Z" fill="white"/>
<path d="M364.469 569.497C364.469 570.661 363.595 571.535 362.429 571.535C361.263 571.535 360.389 570.661 360.389 569.497C360.389 568.332 361.263 567.459 362.429 567.459C363.498 567.459 364.469 568.332 364.469 569.497Z" fill="white"/>
<path d="M381.762 569.497C381.762 570.661 380.887 571.535 379.722 571.535C378.556 571.535 377.682 570.661 377.682 569.497C377.682 568.332 378.556 567.459 379.722 567.459C380.887 567.459 381.762 568.332 381.762 569.497Z" fill="white"/>
<path d="M399.151 569.497C399.151 570.661 398.277 571.535 397.111 571.535C395.945 571.535 395.071 570.661 395.071 569.497C395.071 568.332 395.945 567.459 397.111 567.459C398.277 567.459 399.151 568.332 399.151 569.497Z" fill="white"/>
<path d="M416.54 569.497C416.54 570.661 415.666 571.535 414.5 571.535C413.334 571.535 412.46 570.661 412.46 569.497C412.46 568.332 413.334 567.459 414.5 567.459C415.569 567.459 416.54 568.332 416.54 569.497Z" fill="white"/>
<path d="M433.929 569.497C433.929 570.661 433.055 571.535 431.889 571.535C430.723 571.535 429.849 570.661 429.849 569.497C429.849 568.332 430.723 567.459 431.889 567.459C433.055 567.459 433.929 568.332 433.929 569.497Z" fill="white"/>
<path d="M451.222 569.497C451.222 570.661 450.347 571.535 449.182 571.535C448.016 571.535 447.142 570.661 447.142 569.497C447.142 568.332 448.016 567.459 449.182 567.459C450.347 567.459 451.222 568.332 451.222 569.497Z" fill="white"/>
<path d="M468.611 569.497C468.611 570.661 467.737 571.535 466.571 571.535C465.405 571.535 464.531 570.661 464.531 569.497C464.531 568.332 465.405 567.459 466.571 567.459C467.737 567.459 468.611 568.332 468.611 569.497Z" fill="white"/>
<path d="M486 569.497C486 570.661 485.126 571.535 483.96 571.535C482.794 571.535 481.92 570.661 481.92 569.497C481.92 568.332 482.794 567.459 483.96 567.459C485.029 567.459 486 568.332 486 569.497Z" fill="white"/>
<path d="M347.08 612.68C347.08 613.845 346.206 614.718 345.04 614.718C343.874 614.718 343 613.845 343 612.68C343 611.516 343.874 610.643 345.04 610.643C346.206 610.643 347.08 611.613 347.08 612.68Z" fill="white"/>
<path d="M364.469 612.68C364.469 613.845 363.595 614.718 362.429 614.718C361.263 614.718 360.389 613.845 360.389 612.68C360.389 611.516 361.263 610.643 362.429 610.643C363.498 610.643 364.469 611.613 364.469 612.68Z" fill="white"/>
<path d="M381.762 612.68C381.762 613.845 380.887 614.718 379.722 614.718C378.556 614.718 377.682 613.845 377.682 612.68C377.682 611.516 378.556 610.643 379.722 610.643C380.887 610.643 381.762 611.613 381.762 612.68Z" fill="white"/>
<path d="M399.151 612.68C399.151 613.845 398.277 614.718 397.111 614.718C395.945 614.718 395.071 613.845 395.071 612.68C395.071 611.516 395.945 610.643 397.111 610.643C398.277 610.643 399.151 611.613 399.151 612.68Z" fill="white"/>
<path d="M416.54 612.68C416.54 613.845 415.666 614.718 414.5 614.718C413.334 614.718 412.46 613.845 412.46 612.68C412.46 611.516 413.334 610.643 414.5 610.643C415.569 610.643 416.54 611.613 416.54 612.68Z" fill="white"/>
<path d="M433.929 612.68C433.929 613.845 433.055 614.718 431.889 614.718C430.723 614.718 429.849 613.845 429.849 612.68C429.849 611.516 430.723 610.643 431.889 610.643C433.055 610.643 433.929 611.613 433.929 612.68Z" fill="white"/>
<path d="M451.222 612.68C451.222 613.845 450.347 614.718 449.182 614.718C448.016 614.718 447.142 613.845 447.142 612.68C447.142 611.516 448.016 610.643 449.182 610.643C450.347 610.643 451.222 611.613 451.222 612.68Z" fill="white"/>
<path d="M468.611 612.68C468.611 613.845 467.737 614.718 466.571 614.718C465.405 614.718 464.531 613.845 464.531 612.68C464.531 611.516 465.405 610.643 466.571 610.643C467.737 610.643 468.611 611.613 468.611 612.68Z" fill="white"/>
<path d="M486 612.68C486 613.845 485.126 614.718 483.96 614.718C482.794 614.718 481.92 613.845 481.92 612.68C481.92 611.516 482.794 610.643 483.96 610.643C485.029 610.643 486 611.613 486 612.68Z" fill="white"/>
<path d="M347.08 627.139C347.08 628.304 346.206 629.177 345.04 629.177C343.874 629.177 343 628.304 343 627.139C343 625.975 343.874 625.102 345.04 625.102C346.206 625.102 347.08 625.975 347.08 627.139Z" fill="white"/>
<path d="M364.469 627.139C364.469 628.304 363.595 629.177 362.429 629.177C361.263 629.177 360.389 628.304 360.389 627.139C360.389 625.975 361.263 625.102 362.429 625.102C363.498 625.102 364.469 625.975 364.469 627.139Z" fill="white"/>
<path d="M381.762 627.139C381.762 628.304 380.887 629.177 379.722 629.177C378.556 629.177 377.682 628.304 377.682 627.139C377.682 625.975 378.556 625.102 379.722 625.102C380.887 625.102 381.762 625.975 381.762 627.139Z" fill="white"/>
<path d="M397.111 629.177C398.238 629.177 399.151 628.265 399.151 627.139C399.151 626.014 398.238 625.102 397.111 625.102C395.984 625.102 395.071 626.014 395.071 627.139C395.071 628.265 395.984 629.177 397.111 629.177Z" fill="white"/>
<path d="M416.54 627.139C416.54 628.304 415.666 629.177 414.5 629.177C413.334 629.177 412.46 628.304 412.46 627.139C412.46 625.975 413.334 625.102 414.5 625.102C415.569 625.102 416.54 625.975 416.54 627.139Z" fill="white"/>
<path d="M433.929 627.139C433.929 628.304 433.055 629.177 431.889 629.177C430.723 629.177 429.849 628.304 429.849 627.139C429.849 625.975 430.723 625.102 431.889 625.102C433.055 625.102 433.929 625.975 433.929 627.139Z" fill="white"/>
<path d="M451.222 627.139C451.222 628.304 450.347 629.177 449.182 629.177C448.016 629.177 447.142 628.304 447.142 627.139C447.142 625.975 448.016 625.102 449.182 625.102C450.347 625.102 451.222 625.975 451.222 627.139Z" fill="white"/>
<path d="M466.571 629.177C467.698 629.177 468.611 628.265 468.611 627.139C468.611 626.014 467.698 625.102 466.571 625.102C465.444 625.102 464.531 626.014 464.531 627.139C464.531 628.265 465.444 629.177 466.571 629.177Z" fill="white"/>
<path d="M486 627.139C486 628.304 485.126 629.177 483.96 629.177C482.794 629.177 481.92 628.304 481.92 627.139C481.92 625.975 482.794 625.102 483.96 625.102C485.029 625.102 486 625.975 486 627.139Z" fill="white"/>
<path d="M347.08 641.6C347.08 642.765 346.206 643.638 345.04 643.638C343.874 643.638 343 642.765 343 641.6C343 640.436 343.874 639.562 345.04 639.562C346.206 639.562 347.08 640.436 347.08 641.6Z" fill="white"/>
<path d="M364.469 641.6C364.469 642.765 363.595 643.638 362.429 643.638C361.263 643.638 360.389 642.765 360.389 641.6C360.389 640.436 361.263 639.562 362.429 639.562C363.498 639.562 364.469 640.436 364.469 641.6Z" fill="white"/>
<path d="M381.762 641.6C381.762 642.765 380.887 643.638 379.722 643.638C378.556 643.638 377.682 642.765 377.682 641.6C377.682 640.436 378.556 639.562 379.722 639.562C380.887 639.562 381.762 640.436 381.762 641.6Z" fill="white"/>
<path d="M399.151 641.6C399.151 642.765 398.277 643.638 397.111 643.638C395.945 643.638 395.071 642.765 395.071 641.6C395.071 640.436 395.945 639.562 397.111 639.562C398.277 639.562 399.151 640.436 399.151 641.6Z" fill="white"/>
<path d="M416.54 641.6C416.54 642.765 415.666 643.638 414.5 643.638C413.334 643.638 412.46 642.765 412.46 641.6C412.46 640.436 413.334 639.562 414.5 639.562C415.569 639.562 416.54 640.436 416.54 641.6Z" fill="white"/>
<path d="M433.929 641.6C433.929 642.765 433.055 643.638 431.889 643.638C430.723 643.638 429.849 642.765 429.849 641.6C429.849 640.436 430.723 639.562 431.889 639.562C433.055 639.562 433.929 640.436 433.929 641.6Z" fill="white"/>
<path d="M451.222 641.6C451.222 642.765 450.347 643.638 449.182 643.638C448.016 643.638 447.142 642.765 447.142 641.6C447.142 640.436 448.016 639.562 449.182 639.562C450.347 639.562 451.222 640.436 451.222 641.6Z" fill="white"/>
<path d="M468.611 641.6C468.611 642.765 467.737 643.638 466.571 643.638C465.405 643.638 464.531 642.765 464.531 641.6C464.531 640.436 465.405 639.562 466.571 639.562C467.737 639.562 468.611 640.436 468.611 641.6Z" fill="white"/>
<path d="M486 641.6C486 642.765 485.126 643.638 483.96 643.638C482.794 643.638 481.92 642.765 481.92 641.6C481.92 640.436 482.794 639.562 483.96 639.562C485.029 639.562 486 640.436 486 641.6Z" fill="white"/>
<path d="M347.08 655.962C347.08 657.126 346.206 658 345.04 658C343.874 658 343 657.126 343 655.962C343 654.797 343.874 653.924 345.04 653.924C346.206 653.924 347.08 654.894 347.08 655.962Z" fill="white"/>
<path d="M364.469 655.962C364.469 657.126 363.595 658 362.429 658C361.263 658 360.389 657.126 360.389 655.962C360.389 654.797 361.263 653.924 362.429 653.924C363.498 653.924 364.469 654.894 364.469 655.962Z" fill="white"/>
<path d="M381.762 655.962C381.762 657.126 380.887 658 379.722 658C378.556 658 377.682 657.126 377.682 655.962C377.682 654.797 378.556 653.924 379.722 653.924C380.887 653.924 381.762 654.894 381.762 655.962Z" fill="white"/>
<path d="M399.151 655.962C399.151 657.126 398.277 658 397.111 658C395.945 658 395.071 657.126 395.071 655.962C395.071 654.797 395.945 653.924 397.111 653.924C398.277 653.924 399.151 654.894 399.151 655.962Z" fill="white"/>
<path d="M416.54 655.962C416.54 657.126 415.666 658 414.5 658C413.334 658 412.46 657.126 412.46 655.962C412.46 654.797 413.334 653.924 414.5 653.924C415.569 653.924 416.54 654.894 416.54 655.962Z" fill="white"/>
<path d="M433.929 655.962C433.929 657.126 433.055 658 431.889 658C430.723 658 429.849 657.126 429.849 655.962C429.849 654.797 430.723 653.924 431.889 653.924C433.055 653.924 433.929 654.894 433.929 655.962Z" fill="white"/>
<path d="M451.222 655.962C451.222 657.126 450.347 658 449.182 658C448.016 658 447.142 657.126 447.142 655.962C447.142 654.797 448.016 653.924 449.182 653.924C450.347 653.924 451.222 654.894 451.222 655.962Z" fill="white"/>
<path d="M468.611 655.962C468.611 657.126 467.737 658 466.571 658C465.405 658 464.531 657.126 464.531 655.962C464.531 654.797 465.405 653.924 466.571 653.924C467.737 653.924 468.611 654.894 468.611 655.962Z" fill="white"/>
<path d="M486 655.962C486 657.126 485.126 658 483.96 658C482.794 658 481.92 657.126 481.92 655.962C481.92 654.797 482.794 653.924 483.96 653.924C485.029 653.924 486 654.894 486 655.962Z" fill="white"/>
</g>
<g opacity="0.6">
<path d="M1247.83 176.225C1258.29 176.225 1266.8 167.635 1266.8 157.09C1266.8 146.545 1258.29 137.954 1247.83 137.954L1247.83 176.225Z" fill="white"/>
<path d="M1218.24 176.225C1228.69 176.225 1237.21 167.635 1237.21 157.09C1237.21 146.545 1228.69 137.954 1218.24 137.954L1218.24 176.225Z" fill="white"/>
<path d="M1188.65 176.225C1199.1 176.225 1207.62 167.635 1207.62 157.09C1207.62 146.545 1199.1 137.954 1188.65 137.954L1188.65 176.225Z" fill="white"/>
</g>
<g opacity="0.6" clip-path="url(#clip3_2492_20165)">
<path d="M132.539 75C100.731 75 75 100.731 75 132.539C75 164.269 100.731 190.079 132.539 190.079C164.269 190.079 190.079 164.348 190.079 132.539C190 100.731 164.269 75 132.539 75ZM132.539 186.369C102.783 186.369 78.7097 162.296 78.7097 132.539C78.7097 102.783 102.783 78.7097 132.539 78.7097C162.296 78.7097 186.369 102.783 186.369 132.539C186.369 162.217 162.217 186.369 132.539 186.369Z" fill="white"/>
<path d="M132.539 87.3926C107.677 87.3926 87.4707 107.598 87.4707 132.461C87.4707 157.324 107.677 177.53 132.539 177.53C157.402 177.53 177.608 157.403 177.608 132.54C177.608 107.598 157.402 87.3926 132.539 87.3926ZM132.539 170.663C111.465 170.663 94.3376 153.535 94.3376 132.461C94.3376 111.387 111.465 94.2594 132.539 94.2594C153.613 94.2594 170.741 111.387 170.741 132.461C170.741 153.535 153.613 170.663 132.539 170.663Z" fill="white"/>
<path d="M132.54 107.203C118.569 107.203 107.204 118.569 107.204 132.539C107.204 146.51 118.491 157.876 132.54 157.876C146.51 157.876 157.876 146.51 157.876 132.539C157.797 118.569 146.51 107.203 132.54 107.203ZM132.54 146.115C125.042 146.115 118.964 140.038 118.964 132.539C118.964 125.041 125.042 118.964 132.54 118.964C140.038 118.964 146.116 125.041 146.116 132.539C146.116 140.038 140.038 146.115 132.54 146.115Z" fill="white"/>
</g>
</g>
<defs>
<clipPath id="clip0_2492_20165">
<rect width="1920" height="1256" fill="white"/>
</clipPath>
<clipPath id="clip1_2492_20165">
<rect width="258" height="258" fill="white" transform="translate(1788 593)"/>
</clipPath>
<clipPath id="clip2_2492_20165">
<rect width="143" height="105" fill="white" transform="translate(343 553)"/>
</clipPath>
<clipPath id="clip3_2492_20165">
<rect width="115" height="115" fill="white" transform="translate(75 75)"/>
</clipPath>
</defs>
</svg>
