<svg width="1920" height="2813" viewBox="0 0 1920 2813" fill="none" xmlns="http://www.w3.org/2000/svg">
<g clip-path="url(#clip0_2492_20164)">
<g opacity="0.2">
<path d="M177.474 2778.5L187.001 2778.5L187.001 2753L161.547 2753L161.547 2762.59L177.474 2762.59L177.474 2778.5Z" fill="#FFCF2D"/>
<path d="M160.161 2795.71L169.761 2795.71L169.761 2770.29L144.234 2770.29L144.234 2779.8L160.161 2779.8L160.161 2795.71Z" fill="#FFCF2D"/>
<path d="M142.927 2813L152.527 2813L152.527 2787.5L127 2787.5L127 2797.09L142.927 2797.09L142.927 2813Z" fill="#FFCF2D"/>
</g>
<g opacity="0.12" clip-path="url(#clip1_2492_20164)">
<path d="M1899.08 1845C1832.15 1845 1778 1899.15 1778 1966.08C1778 2032.85 1832.15 2087.17 1899.08 2087.17C1965.85 2087.17 2020.17 2033.02 2020.17 1966.08C2020 1899.15 1965.85 1845 1899.08 1845ZM1899.08 2079.36C1836.47 2079.36 1785.81 2028.7 1785.81 1966.08C1785.81 1903.47 1836.47 1852.81 1899.08 1852.81C1961.7 1852.81 2012.36 1903.47 2012.36 1966.08C2012.36 2028.53 1961.53 2079.36 1899.08 2079.36Z" fill="#FFCF2D"/>
<path d="M1899.08 1871.08C1846.76 1871.08 1804.24 1913.6 1804.24 1965.92C1804.24 2018.24 1846.76 2060.76 1899.08 2060.76C1951.4 2060.76 1993.92 2018.4 1993.92 1966.08C1993.92 1913.6 1951.4 1871.08 1899.08 1871.08ZM1899.08 2046.31C1854.74 2046.31 1818.69 2010.26 1818.69 1965.92C1818.69 1921.57 1854.74 1885.53 1899.08 1885.53C1943.43 1885.53 1979.47 1921.57 1979.47 1965.92C1979.47 2010.26 1943.43 2046.31 1899.08 2046.31Z" fill="#FFCF2D"/>
</g>
<g opacity="0.8" clip-path="url(#clip2_2492_20164)">
<path d="M258.88 29.3901C258.88 30.4991 258.049 31.3309 256.94 31.3309C255.832 31.3309 255 30.4991 255 29.3901C255 28.281 255.832 27.4492 256.94 27.4492C258.049 27.4492 258.88 28.3734 258.88 29.3901Z" fill="#FFCF2D"/>
<path d="M275.419 29.3901C275.419 30.4991 274.587 31.3309 273.478 31.3309C272.37 31.3309 271.538 30.4991 271.538 29.3901C271.538 28.281 272.37 27.4492 273.478 27.4492C274.495 27.4492 275.419 28.3734 275.419 29.3901Z" fill="#FFCF2D"/>
<path d="M291.864 29.3901C291.864 30.4991 291.033 31.3309 289.924 31.3309C288.815 31.3309 287.984 30.4991 287.984 29.3901C287.984 28.281 288.815 27.4492 289.924 27.4492C291.033 27.4492 291.864 28.3734 291.864 29.3901Z" fill="#FFCF2D"/>
<path d="M308.402 29.3901C308.402 30.4991 307.571 31.3309 306.462 31.3309C305.353 31.3309 304.522 30.4991 304.522 29.3901C304.522 28.281 305.353 27.4492 306.462 27.4492C307.571 27.4492 308.402 28.3734 308.402 29.3901Z" fill="#FFCF2D"/>
<path d="M324.94 29.3901C324.94 30.4991 324.108 31.3309 323 31.3309C321.891 31.3309 321.06 30.4991 321.06 29.3901C321.06 28.281 321.891 27.4492 323 27.4492C324.016 27.4492 324.94 28.3734 324.94 29.3901Z" fill="#FFCF2D"/>
<path d="M341.478 29.3901C341.478 30.4991 340.647 31.3309 339.538 31.3309C338.429 31.3309 337.598 30.4991 337.598 29.3901C337.598 28.281 338.429 27.4492 339.538 27.4492C340.647 27.4492 341.478 28.3734 341.478 29.3901Z" fill="#FFCF2D"/>
<path d="M357.924 29.3901C357.924 30.4991 357.092 31.3309 355.984 31.3309C354.875 31.3309 354.043 30.4991 354.043 29.3901C354.043 28.281 354.875 27.4492 355.984 27.4492C357.092 27.4492 357.924 28.3734 357.924 29.3901Z" fill="#FFCF2D"/>
<path d="M374.462 29.3901C374.462 30.4991 373.63 31.3309 372.522 31.3309C371.413 31.3309 370.582 30.4991 370.582 29.3901C370.582 28.281 371.413 27.4492 372.522 27.4492C373.63 27.4492 374.462 28.3734 374.462 29.3901Z" fill="#FFCF2D"/>
<path d="M391 29.3901C391 30.4991 390.169 31.3309 389.06 31.3309C387.951 31.3309 387.12 30.4991 387.12 29.3901C387.12 28.281 387.951 27.4492 389.06 27.4492C390.076 27.4492 391 28.3734 391 29.3901Z" fill="#FFCF2D"/>
<path d="M258.88 43.1606C258.88 44.2696 258.049 45.1014 256.94 45.1014C255.832 45.1014 255 44.2696 255 43.1606C255 42.0515 255.832 41.2197 256.94 41.2197C258.049 41.2197 258.88 42.0515 258.88 43.1606Z" fill="#FFCF2D"/>
<path d="M275.419 43.1606C275.419 44.2696 274.587 45.1014 273.478 45.1014C272.37 45.1014 271.538 44.2696 271.538 43.1606C271.538 42.0515 272.37 41.2197 273.478 41.2197C274.495 41.2197 275.419 42.0515 275.419 43.1606Z" fill="#FFCF2D"/>
<path d="M291.864 43.1606C291.864 44.2696 291.033 45.1014 289.924 45.1014C288.815 45.1014 287.984 44.2696 287.984 43.1606C287.984 42.0515 288.815 41.2197 289.924 41.2197C291.033 41.2197 291.864 42.0515 291.864 43.1606Z" fill="#FFCF2D"/>
<path d="M308.402 43.1606C308.402 44.2696 307.571 45.1014 306.462 45.1014C305.353 45.1014 304.522 44.2696 304.522 43.1606C304.522 42.0515 305.353 41.2197 306.462 41.2197C307.571 41.2197 308.402 42.0515 308.402 43.1606Z" fill="#FFCF2D"/>
<path d="M324.94 43.1606C324.94 44.2696 324.108 45.1014 323 45.1014C321.891 45.1014 321.06 44.2696 321.06 43.1606C321.06 42.0515 321.891 41.2197 323 41.2197C324.016 41.2197 324.94 42.0515 324.94 43.1606Z" fill="#FFCF2D"/>
<path d="M341.478 43.1606C341.478 44.2696 340.647 45.1014 339.538 45.1014C338.429 45.1014 337.598 44.2696 337.598 43.1606C337.598 42.0515 338.429 41.2197 339.538 41.2197C340.647 41.2197 341.478 42.0515 341.478 43.1606Z" fill="#FFCF2D"/>
<path d="M357.924 43.1606C357.924 44.2696 357.092 45.1014 355.984 45.1014C354.875 45.1014 354.043 44.2696 354.043 43.1606C354.043 42.0515 354.875 41.2197 355.984 41.2197C357.092 41.2197 357.924 42.0515 357.924 43.1606Z" fill="#FFCF2D"/>
<path d="M374.462 43.1606C374.462 44.2696 373.63 45.1014 372.522 45.1014C371.413 45.1014 370.582 44.2696 370.582 43.1606C370.582 42.0515 371.413 41.2197 372.522 41.2197C373.63 41.2197 374.462 42.0515 374.462 43.1606Z" fill="#FFCF2D"/>
<path d="M391 43.1606C391 44.2696 390.169 45.1014 389.06 45.1014C387.951 45.1014 387.12 44.2696 387.12 43.1606C387.12 42.0515 387.951 41.2197 389.06 41.2197C390.076 41.2197 391 42.0515 391 43.1606Z" fill="#FFCF2D"/>
<path d="M258.88 1.94085C258.88 3.04991 258.049 3.8817 256.94 3.8817C255.832 3.8817 255 3.04991 255 1.94085C255 0.831793 255.832 0 256.94 0C258.049 0 258.88 0.831793 258.88 1.94085Z" fill="#FFCF2D"/>
<path d="M275.419 1.94085C275.419 3.04991 274.587 3.8817 273.478 3.8817C272.37 3.8817 271.538 3.04991 271.538 1.94085C271.538 0.831793 272.37 0 273.478 0C274.495 0 275.419 0.831793 275.419 1.94085Z" fill="#FFCF2D"/>
<path d="M291.864 1.94085C291.864 3.04991 291.033 3.8817 289.924 3.8817C288.815 3.8817 287.984 3.04991 287.984 1.94085C287.984 0.831793 288.908 0 289.924 0C291.033 0 291.864 0.831793 291.864 1.94085Z" fill="#FFCF2D"/>
<path d="M308.402 1.94085C308.402 3.04991 307.571 3.8817 306.462 3.8817C305.353 3.8817 304.522 3.04991 304.522 1.94085C304.522 0.831793 305.446 0 306.462 0C307.478 0 308.402 0.831793 308.402 1.94085Z" fill="#FFCF2D"/>
<path d="M324.94 1.94085C324.94 3.04991 324.108 3.8817 323 3.8817C321.891 3.8817 321.06 3.04991 321.06 1.94085C321.06 0.831793 321.891 0 323 0C324.016 0 324.94 0.831793 324.94 1.94085Z" fill="#FFCF2D"/>
<path d="M341.478 1.94085C341.478 3.04991 340.647 3.8817 339.538 3.8817C338.429 3.8817 337.598 3.04991 337.598 1.94085C337.598 0.831793 338.429 0 339.538 0C340.647 0 341.478 0.831793 341.478 1.94085Z" fill="#FFCF2D"/>
<path d="M357.924 1.94085C357.924 3.04991 357.092 3.8817 355.984 3.8817C354.875 3.8817 354.043 3.04991 354.043 1.94085C354.043 0.831793 354.875 0 355.984 0C357.092 0 357.924 0.831793 357.924 1.94085Z" fill="#FFCF2D"/>
<path d="M374.462 1.94085C374.462 3.04991 373.63 3.8817 372.522 3.8817C371.413 3.8817 370.582 3.04991 370.582 1.94085C370.582 0.831793 371.413 0 372.522 0C373.63 0 374.462 0.831793 374.462 1.94085Z" fill="#FFCF2D"/>
<path d="M391 1.94085C391 3.04991 390.169 3.8817 389.06 3.8817C387.951 3.8817 387.12 3.04991 387.12 1.94085C387.12 0.831793 387.951 0 389.06 0C390.076 0 391 0.831793 391 1.94085Z" fill="#FFCF2D"/>
<path d="M258.88 15.7114C258.88 16.8204 258.049 17.6522 256.94 17.6522C255.832 17.6522 255 16.728 255 15.7114C255 14.6023 255.832 13.7705 256.94 13.7705C258.049 13.7705 258.88 14.6023 258.88 15.7114Z" fill="#FFCF2D"/>
<path d="M275.419 15.7114C275.419 16.8204 274.587 17.6522 273.478 17.6522C272.37 17.6522 271.538 16.8204 271.538 15.7114C271.538 14.6023 272.37 13.7705 273.478 13.7705C274.495 13.7705 275.419 14.6023 275.419 15.7114Z" fill="#FFCF2D"/>
<path d="M291.864 15.7114C291.864 16.8204 291.033 17.6522 289.924 17.6522C288.815 17.6522 287.984 16.8204 287.984 15.7114C287.984 14.6023 288.815 13.7705 289.924 13.7705C291.033 13.7705 291.864 14.6023 291.864 15.7114Z" fill="#FFCF2D"/>
<path d="M308.402 15.7114C308.402 16.8204 307.571 17.6522 306.462 17.6522C305.353 17.6522 304.522 16.8204 304.522 15.7114C304.522 14.6023 305.353 13.7705 306.462 13.7705C307.571 13.7705 308.402 14.6023 308.402 15.7114Z" fill="#FFCF2D"/>
<path d="M324.94 15.7114C324.94 16.8204 324.108 17.6522 323 17.6522C321.891 17.6522 321.06 16.8204 321.06 15.7114C321.06 14.6023 321.891 13.7705 323 13.7705C324.016 13.7705 324.94 14.6023 324.94 15.7114Z" fill="#FFCF2D"/>
<path d="M341.478 15.7114C341.478 16.8204 340.647 17.6522 339.538 17.6522C338.429 17.6522 337.598 16.8204 337.598 15.7114C337.598 14.6023 338.429 13.7705 339.538 13.7705C340.647 13.7705 341.478 14.6023 341.478 15.7114Z" fill="#FFCF2D"/>
<path d="M357.924 15.7114C357.924 16.8204 357.092 17.6522 355.984 17.6522C354.875 17.6522 354.043 16.8204 354.043 15.7114C354.043 14.6023 354.875 13.7705 355.984 13.7705C357.092 13.7705 357.924 14.6023 357.924 15.7114Z" fill="#FFCF2D"/>
<path d="M374.462 15.7114C374.462 16.8204 373.63 17.6522 372.522 17.6522C371.413 17.6522 370.582 16.8204 370.582 15.7114C370.582 14.6023 371.413 13.7705 372.522 13.7705C373.63 13.7705 374.462 14.6023 374.462 15.7114Z" fill="#FFCF2D"/>
<path d="M391 15.7114C391 16.8204 390.169 17.6522 389.06 17.6522C387.951 17.6522 387.12 16.8204 387.12 15.7114C387.12 14.6023 387.951 13.7705 389.06 13.7705C390.076 13.7705 391 14.6023 391 15.7114Z" fill="#FFCF2D"/>
<path d="M258.88 56.8393C258.88 57.9483 258.049 58.7801 256.94 58.7801C255.832 58.7801 255 57.9483 255 56.8393C255 55.7302 255.832 54.8984 256.94 54.8984C258.049 54.8984 258.88 55.8226 258.88 56.8393Z" fill="#FFCF2D"/>
<path d="M275.419 56.8393C275.419 57.9483 274.587 58.7801 273.478 58.7801C272.37 58.7801 271.538 57.9483 271.538 56.8393C271.538 55.7302 272.37 54.8984 273.478 54.8984C274.495 54.8984 275.419 55.8226 275.419 56.8393Z" fill="#FFCF2D"/>
<path d="M291.864 56.8393C291.864 57.9483 291.033 58.7801 289.924 58.7801C288.815 58.7801 287.984 57.9483 287.984 56.8393C287.984 55.7302 288.815 54.8984 289.924 54.8984C291.033 54.8984 291.864 55.8226 291.864 56.8393Z" fill="#FFCF2D"/>
<path d="M308.402 56.8393C308.402 57.9483 307.571 58.7801 306.462 58.7801C305.353 58.7801 304.522 57.9483 304.522 56.8393C304.522 55.7302 305.353 54.8984 306.462 54.8984C307.571 54.8984 308.402 55.8226 308.402 56.8393Z" fill="#FFCF2D"/>
<path d="M324.94 56.8393C324.94 57.9483 324.108 58.7801 323 58.7801C321.891 58.7801 321.06 57.9483 321.06 56.8393C321.06 55.7302 321.891 54.8984 323 54.8984C324.016 54.8984 324.94 55.8226 324.94 56.8393Z" fill="#FFCF2D"/>
<path d="M341.478 56.8393C341.478 57.9483 340.647 58.7801 339.538 58.7801C338.429 58.7801 337.598 57.9483 337.598 56.8393C337.598 55.7302 338.429 54.8984 339.538 54.8984C340.647 54.8984 341.478 55.8226 341.478 56.8393Z" fill="#FFCF2D"/>
<path d="M357.924 56.8393C357.924 57.9483 357.092 58.7801 355.984 58.7801C354.875 58.7801 354.043 57.9483 354.043 56.8393C354.043 55.7302 354.875 54.8984 355.984 54.8984C357.092 54.8984 357.924 55.8226 357.924 56.8393Z" fill="#FFCF2D"/>
<path d="M374.462 56.8393C374.462 57.9483 373.63 58.7801 372.522 58.7801C371.413 58.7801 370.582 57.9483 370.582 56.8393C370.582 55.7302 371.413 54.8984 372.522 54.8984C373.63 54.8984 374.462 55.8226 374.462 56.8393Z" fill="#FFCF2D"/>
<path d="M391 56.8393C391 57.9483 390.169 58.7801 389.06 58.7801C387.951 58.7801 387.12 57.9483 387.12 56.8393C387.12 55.7302 387.951 54.8984 389.06 54.8984C390.076 54.8984 391 55.8226 391 56.8393Z" fill="#FFCF2D"/>
<path d="M258.88 70.6098C258.88 71.7189 258.049 72.5506 256.94 72.5506C255.832 72.5506 255 71.7189 255 70.6098C255 69.5007 255.832 68.6689 256.94 68.6689C258.049 68.6689 258.88 69.5007 258.88 70.6098Z" fill="#FFCF2D"/>
<path d="M275.419 70.6098C275.419 71.7189 274.587 72.5506 273.478 72.5506C272.37 72.5506 271.538 71.7189 271.538 70.6098C271.538 69.5007 272.37 68.6689 273.478 68.6689C274.495 68.6689 275.419 69.5007 275.419 70.6098Z" fill="#FFCF2D"/>
<path d="M291.864 70.6098C291.864 71.7189 291.033 72.5506 289.924 72.5506C288.815 72.5506 287.984 71.7189 287.984 70.6098C287.984 69.5007 288.815 68.6689 289.924 68.6689C291.033 68.6689 291.864 69.5007 291.864 70.6098Z" fill="#FFCF2D"/>
<path d="M306.462 72.5506C307.534 72.5506 308.402 71.6817 308.402 70.6098C308.402 69.5379 307.534 68.6689 306.462 68.6689C305.391 68.6689 304.522 69.5379 304.522 70.6098C304.522 71.6817 305.391 72.5506 306.462 72.5506Z" fill="#FFCF2D"/>
<path d="M324.94 70.6098C324.94 71.7189 324.108 72.5506 323 72.5506C321.891 72.5506 321.06 71.7189 321.06 70.6098C321.06 69.5007 321.891 68.6689 323 68.6689C324.016 68.6689 324.94 69.5007 324.94 70.6098Z" fill="#FFCF2D"/>
<path d="M341.478 70.6098C341.478 71.7189 340.647 72.5506 339.538 72.5506C338.429 72.5506 337.598 71.7189 337.598 70.6098C337.598 69.5007 338.429 68.6689 339.538 68.6689C340.647 68.6689 341.478 69.5007 341.478 70.6098Z" fill="#FFCF2D"/>
<path d="M357.924 70.6098C357.924 71.7189 357.092 72.5506 355.984 72.5506C354.875 72.5506 354.043 71.7189 354.043 70.6098C354.043 69.5007 354.875 68.6689 355.984 68.6689C357.092 68.6689 357.924 69.5007 357.924 70.6098Z" fill="#FFCF2D"/>
<path d="M372.522 72.5506C373.593 72.5506 374.462 71.6817 374.462 70.6098C374.462 69.5379 373.593 68.6689 372.522 68.6689C371.45 68.6689 370.582 69.5379 370.582 70.6098C370.582 71.6817 371.45 72.5506 372.522 72.5506Z" fill="#FFCF2D"/>
<path d="M391 70.6098C391 71.7189 390.169 72.5506 389.06 72.5506C387.951 72.5506 387.12 71.7189 387.12 70.6098C387.12 69.5007 387.951 68.6689 389.06 68.6689C390.076 68.6689 391 69.5007 391 70.6098Z" fill="#FFCF2D"/>
<path d="M258.88 84.3813C258.88 85.4903 258.049 86.3221 256.94 86.3221C255.832 86.3221 255 85.4903 255 84.3813C255 83.2722 255.832 82.4404 256.94 82.4404C258.049 82.4404 258.88 83.2722 258.88 84.3813Z" fill="#FFCF2D"/>
<path d="M275.419 84.3813C275.419 85.4903 274.587 86.3221 273.478 86.3221C272.37 86.3221 271.538 85.4903 271.538 84.3813C271.538 83.2722 272.37 82.4404 273.478 82.4404C274.495 82.4404 275.419 83.2722 275.419 84.3813Z" fill="#FFCF2D"/>
<path d="M291.864 84.3813C291.864 85.4903 291.033 86.3221 289.924 86.3221C288.815 86.3221 287.984 85.4903 287.984 84.3813C287.984 83.2722 288.815 82.4404 289.924 82.4404C291.033 82.4404 291.864 83.2722 291.864 84.3813Z" fill="#FFCF2D"/>
<path d="M308.402 84.3813C308.402 85.4903 307.571 86.3221 306.462 86.3221C305.353 86.3221 304.522 85.4903 304.522 84.3813C304.522 83.2722 305.353 82.4404 306.462 82.4404C307.571 82.4404 308.402 83.2722 308.402 84.3813Z" fill="#FFCF2D"/>
<path d="M324.94 84.3813C324.94 85.4903 324.108 86.3221 323 86.3221C321.891 86.3221 321.06 85.4903 321.06 84.3813C321.06 83.2722 321.891 82.4404 323 82.4404C324.016 82.4404 324.94 83.2722 324.94 84.3813Z" fill="#FFCF2D"/>
<path d="M341.478 84.3813C341.478 85.4903 340.647 86.3221 339.538 86.3221C338.429 86.3221 337.598 85.4903 337.598 84.3813C337.598 83.2722 338.429 82.4404 339.538 82.4404C340.647 82.4404 341.478 83.2722 341.478 84.3813Z" fill="#FFCF2D"/>
<path d="M357.924 84.3813C357.924 85.4903 357.092 86.3221 355.984 86.3221C354.875 86.3221 354.043 85.4903 354.043 84.3813C354.043 83.2722 354.875 82.4404 355.984 82.4404C357.092 82.4404 357.924 83.2722 357.924 84.3813Z" fill="#FFCF2D"/>
<path d="M374.462 84.3813C374.462 85.4903 373.63 86.3221 372.522 86.3221C371.413 86.3221 370.582 85.4903 370.582 84.3813C370.582 83.2722 371.413 82.4404 372.522 82.4404C373.63 82.4404 374.462 83.2722 374.462 84.3813Z" fill="#FFCF2D"/>
<path d="M391 84.3813C391 85.4903 390.169 86.3221 389.06 86.3221C387.951 86.3221 387.12 85.4903 387.12 84.3813C387.12 83.2722 387.951 82.4404 389.06 82.4404C390.076 82.4404 391 83.2722 391 84.3813Z" fill="#FFCF2D"/>
<path d="M258.88 98.059C258.88 99.1681 258.049 99.9999 256.94 99.9999C255.832 99.9999 255 99.1681 255 98.059C255 96.95 255.832 96.1182 256.94 96.1182C258.049 96.1182 258.88 97.0424 258.88 98.059Z" fill="#FFCF2D"/>
<path d="M275.419 98.059C275.419 99.1681 274.587 99.9999 273.478 99.9999C272.37 99.9999 271.538 99.1681 271.538 98.059C271.538 96.95 272.37 96.1182 273.478 96.1182C274.495 96.1182 275.419 97.0424 275.419 98.059Z" fill="#FFCF2D"/>
<path d="M291.864 98.059C291.864 99.1681 291.033 99.9999 289.924 99.9999C288.815 99.9999 287.984 99.1681 287.984 98.059C287.984 96.95 288.815 96.1182 289.924 96.1182C291.033 96.1182 291.864 97.0424 291.864 98.059Z" fill="#FFCF2D"/>
<path d="M308.402 98.059C308.402 99.1681 307.571 99.9999 306.462 99.9999C305.353 99.9999 304.522 99.1681 304.522 98.059C304.522 96.95 305.353 96.1182 306.462 96.1182C307.571 96.1182 308.402 97.0424 308.402 98.059Z" fill="#FFCF2D"/>
<path d="M324.94 98.059C324.94 99.1681 324.108 99.9999 323 99.9999C321.891 99.9999 321.06 99.1681 321.06 98.059C321.06 96.95 321.891 96.1182 323 96.1182C324.016 96.1182 324.94 97.0424 324.94 98.059Z" fill="#FFCF2D"/>
<path d="M341.478 98.059C341.478 99.1681 340.647 99.9999 339.538 99.9999C338.429 99.9999 337.598 99.1681 337.598 98.059C337.598 96.95 338.429 96.1182 339.538 96.1182C340.647 96.1182 341.478 97.0424 341.478 98.059Z" fill="#FFCF2D"/>
<path d="M357.924 98.059C357.924 99.1681 357.092 99.9999 355.984 99.9999C354.875 99.9999 354.043 99.1681 354.043 98.059C354.043 96.95 354.875 96.1182 355.984 96.1182C357.092 96.1182 357.924 97.0424 357.924 98.059Z" fill="#FFCF2D"/>
<path d="M374.462 98.059C374.462 99.1681 373.63 99.9999 372.522 99.9999C371.413 99.9999 370.582 99.1681 370.582 98.059C370.582 96.95 371.413 96.1182 372.522 96.1182C373.63 96.1182 374.462 97.0424 374.462 98.059Z" fill="#FFCF2D"/>
<path d="M391 98.059C391 99.1681 390.169 99.9999 389.06 99.9999C387.951 99.9999 387.12 99.1681 387.12 98.059C387.12 96.95 387.951 96.1182 389.06 96.1182C390.076 96.1182 391 97.0424 391 98.059Z" fill="#FFCF2D"/>
</g>
<g opacity="0.2">
<path d="M1760.02 154.901C1769.31 149.541 1772.51 137.619 1767.15 128.343C1761.79 119.066 1749.87 115.876 1740.59 121.235L1760.02 154.901Z" fill="#FFCF2D"/>
<path d="M1733.74 170.074C1743.03 164.714 1746.23 152.792 1740.87 143.516C1735.52 134.239 1723.59 131.049 1714.31 136.408L1733.74 170.074Z" fill="#FFCF2D"/>
<path d="M1707.46 185.246C1716.75 179.886 1719.95 167.964 1714.59 158.687C1709.24 149.411 1697.31 146.221 1688.03 151.58L1707.46 185.246Z" fill="#FFCF2D"/>
</g>
</g>
<defs>
<clipPath id="clip0_2492_20164">
<rect width="1920" height="2813" fill="white"/>
</clipPath>
<clipPath id="clip1_2492_20164">
<rect width="242" height="242" fill="white" transform="translate(1778 1845)"/>
</clipPath>
<clipPath id="clip2_2492_20164">
<rect width="136" height="100" fill="white" transform="translate(255)"/>
</clipPath>
</defs>
</svg>
