<svg width="1920" height="1139" viewBox="0 0 1920 1139" fill="none" xmlns="http://www.w3.org/2000/svg">
<g opacity="0.2">
<path d="M1819.93 1064.56L1819.93 1054L1848 1054L1848 1082.07L1837.52 1082.07L1837.52 1064.56L1819.93 1064.56Z" fill="#FFCF2D"/>
<path d="M1800.98 1083.51L1800.98 1073.03L1829.05 1073.03L1829.05 1101.02L1818.49 1101.02L1818.49 1083.51L1800.98 1083.51Z" fill="#FFCF2D"/>
<path d="M1782.03 1102.54L1782.03 1091.98L1810.02 1091.98L1810.02 1120.05L1799.54 1120.05L1799.54 1102.54L1782.03 1102.54Z" fill="#FFCF2D"/>
<path d="M1763 1121.49L1763 1110.93L1791.07 1110.93L1791.07 1139L1780.51 1139L1780.51 1121.49L1763 1121.49Z" fill="#FFCF2D"/>
</g>
<g opacity="0.8" clip-path="url(#clip0_2492_17662)">
<path d="M1869.25 18.9636C1868.24 19.5459 1867.05 19.2254 1866.46 18.2158C1865.88 17.2062 1866.2 16.0123 1867.21 15.4301C1868.22 14.8478 1869.41 15.1683 1869.99 16.1779C1870.58 17.1875 1870.17 18.4299 1869.25 18.9636Z" fill="#FFCF2D"/>
<path d="M1877.94 34.0232C1876.93 34.6054 1875.74 34.2849 1875.16 33.2754C1874.57 32.2658 1874.89 31.0719 1875.9 30.4896C1876.91 29.9074 1878.1 30.2279 1878.69 31.2375C1879.22 32.1629 1878.87 33.4894 1877.94 34.0232Z" fill="#FFCF2D"/>
<path d="M1886.59 48.9988C1885.58 49.581 1884.39 49.2605 1883.8 48.2509C1883.22 47.2414 1883.54 46.0475 1884.55 45.4652C1885.56 44.883 1886.75 45.2035 1887.33 46.213C1887.92 47.2226 1887.51 48.465 1886.59 48.9988Z" fill="#FFCF2D"/>
<path d="M1895.28 64.0574C1894.27 64.6396 1893.08 64.3191 1892.5 63.3095C1891.91 62.3 1892.23 61.1061 1893.24 60.5238C1894.25 59.9416 1895.44 60.2621 1896.03 61.2716C1896.61 62.2812 1896.21 63.5236 1895.28 64.0574Z" fill="#FFCF2D"/>
<path d="M1903.98 79.1169C1902.97 79.6992 1901.78 79.3787 1901.19 78.3691C1900.61 77.3595 1900.93 76.1657 1901.94 75.5834C1902.95 75.0011 1904.14 75.3216 1904.72 76.3312C1905.26 77.2567 1904.9 78.5832 1903.98 79.1169Z" fill="#FFCF2D"/>
<path d="M1912.67 94.1765C1911.66 94.7587 1910.47 94.4383 1909.89 93.4287C1909.3 92.4191 1909.62 91.2252 1910.63 90.643C1911.64 90.0607 1912.83 90.3812 1913.42 91.3908C1914 92.4004 1913.6 93.6428 1912.67 94.1765Z" fill="#FFCF2D"/>
<path d="M1921.32 109.152C1920.31 109.734 1919.12 109.414 1918.53 108.404C1917.95 107.395 1918.27 106.201 1919.28 105.619C1920.29 105.036 1921.48 105.357 1922.06 106.366C1922.65 107.376 1922.24 108.618 1921.32 109.152Z" fill="#FFCF2D"/>
<path d="M1856.73 26.1931C1855.72 26.7754 1854.52 26.4549 1853.94 25.4453C1853.36 24.4357 1853.68 23.2418 1854.69 22.6596C1855.69 22.0773 1856.89 22.3978 1857.47 23.4074C1858.05 24.417 1857.73 25.6108 1856.73 26.1931Z" fill="#FFCF2D"/>
<path d="M1865.42 41.2527C1864.41 41.8349 1863.22 41.5144 1862.64 40.5049C1862.05 39.4953 1862.37 38.3014 1863.38 37.7191C1864.39 37.1369 1865.58 37.4574 1866.17 38.467C1866.7 39.3924 1866.43 40.6704 1865.42 41.2527Z" fill="#FFCF2D"/>
<path d="M1874.07 56.2283C1873.06 56.8105 1871.86 56.49 1871.28 55.4804C1870.7 54.4709 1871.02 53.277 1872.03 52.6947C1873.03 52.1125 1874.23 52.433 1874.81 53.4425C1875.39 54.4521 1875.07 55.646 1874.07 56.2283Z" fill="#FFCF2D"/>
<path d="M1882.76 71.2878C1881.75 71.8701 1880.56 71.5496 1879.98 70.54C1879.39 69.5304 1879.71 68.3366 1880.72 67.7543C1881.73 67.172 1882.92 67.4925 1883.51 68.5021C1884.09 69.5117 1883.77 70.7056 1882.76 71.2878Z" fill="#FFCF2D"/>
<path d="M1891.46 86.3474C1890.45 86.9296 1889.25 86.6092 1888.67 85.5996C1888.09 84.59 1888.41 83.3961 1889.42 82.8139C1890.42 82.2316 1891.62 82.5521 1892.2 83.5617C1892.73 84.4871 1892.46 85.7651 1891.46 86.3474Z" fill="#FFCF2D"/>
<path d="M1900.15 101.407C1899.14 101.989 1897.95 101.669 1897.37 100.659C1896.78 99.6496 1897.1 98.4557 1898.11 97.8734C1899.12 97.2912 1900.31 97.6117 1900.9 98.6213C1901.48 99.6308 1901.16 100.825 1900.15 101.407Z" fill="#FFCF2D"/>
<path d="M1908.8 116.382C1907.79 116.964 1906.59 116.643 1906.01 115.634C1905.43 114.624 1905.75 113.43 1906.76 112.848C1907.76 112.266 1908.96 112.586 1909.54 113.596C1910.12 114.605 1909.8 115.799 1908.8 116.382Z" fill="#FFCF2D"/>
<path d="M1917.49 131.441C1916.48 132.023 1915.29 131.703 1914.71 130.693C1914.12 129.684 1914.44 128.49 1915.45 127.908C1916.46 127.325 1917.65 127.646 1918.24 128.655C1918.82 129.665 1918.5 130.859 1917.49 131.441Z" fill="#FFCF2D"/>
<path d="M1894.21 4.55247C1893.2 5.13473 1892.01 4.81423 1891.42 3.80465C1890.84 2.79508 1891.16 1.6012 1892.17 1.01895C1893.18 0.436691 1894.37 0.757184 1894.95 1.76676C1895.54 2.77634 1895.22 3.97022 1894.21 4.55247Z" fill="#FFCF2D"/>
<path d="M1902.9 19.612C1901.89 20.1943 1900.7 19.8738 1900.12 18.8642C1899.53 17.8546 1899.85 16.6608 1900.86 16.0785C1901.87 15.4963 1903.06 15.8168 1903.65 16.8263C1904.18 17.7518 1903.91 19.0298 1902.9 19.612Z" fill="#FFCF2D"/>
<path d="M1911.55 34.5876C1910.54 35.1699 1909.35 34.8494 1908.76 33.8398C1908.18 32.8302 1908.5 31.6364 1909.51 31.0541C1910.52 30.4718 1911.76 30.8765 1912.29 31.8019C1912.88 32.8115 1912.56 34.0054 1911.55 34.5876Z" fill="#FFCF2D"/>
<path d="M1920.24 49.6472C1919.23 50.2295 1918.04 49.909 1917.46 48.8994C1916.88 47.8898 1917.19 46.6959 1918.2 46.1137C1919.21 45.5314 1920.45 45.936 1920.99 46.8615C1921.52 47.7869 1921.25 49.0649 1920.24 49.6472Z" fill="#FFCF2D"/>
<path d="M1881.69 11.782C1880.68 12.3642 1879.48 12.0437 1878.9 11.0341C1878.32 10.0246 1878.72 8.78217 1879.65 8.24844C1880.65 7.66618 1881.85 7.98668 1882.43 8.99625C1883.01 10.0058 1882.69 11.1997 1881.69 11.782Z" fill="#FFCF2D"/>
<path d="M1890.38 26.8415C1889.37 27.4238 1888.18 27.1033 1887.6 26.0937C1887.01 25.0841 1887.33 23.8903 1888.34 23.308C1889.35 22.7258 1890.54 23.0462 1891.13 24.0558C1891.66 24.9813 1891.39 26.2593 1890.38 26.8415Z" fill="#FFCF2D"/>
<path d="M1899.03 41.8171C1898.02 42.3994 1896.82 42.0789 1896.24 41.0693C1895.66 40.0597 1895.98 38.8658 1896.99 38.2836C1897.99 37.7013 1899.19 38.0218 1899.77 39.0314C1900.35 40.041 1900.03 41.2349 1899.03 41.8171Z" fill="#FFCF2D"/>
<path d="M1907.72 56.8767C1906.71 57.4589 1905.52 57.1385 1904.94 56.1289C1904.35 55.1193 1904.67 53.9254 1905.68 53.3432C1906.69 52.7609 1907.88 53.0814 1908.47 54.091C1909.05 55.1006 1908.73 56.2944 1907.72 56.8767Z" fill="#FFCF2D"/>
<path d="M1916.42 71.9363C1915.41 72.5185 1914.21 72.198 1913.63 71.1884C1913.05 70.1789 1913.37 68.985 1914.38 68.4027C1915.38 67.8205 1916.58 68.141 1917.16 69.1505C1917.69 70.076 1917.42 71.354 1916.42 71.9363Z" fill="#FFCF2D"/>
<path d="M1844.29 33.3738C1843.28 33.956 1842.09 33.6355 1841.5 32.6259C1840.92 31.6164 1841.24 30.4225 1842.25 29.8402C1843.26 29.258 1844.45 29.5785 1845.03 30.5881C1845.61 31.5976 1845.21 32.84 1844.29 33.3738Z" fill="#FFCF2D"/>
<path d="M1852.98 48.4333C1851.97 49.0156 1850.78 48.6951 1850.2 47.6855C1849.61 46.6759 1849.93 45.4821 1850.94 44.8998C1851.95 44.3176 1853.14 44.638 1853.73 45.6476C1854.26 46.5731 1853.91 47.8996 1852.98 48.4333Z" fill="#FFCF2D"/>
<path d="M1861.63 63.4089C1860.62 63.9912 1859.43 63.6707 1858.84 62.6611C1858.26 61.6515 1858.58 60.4576 1859.59 59.8754C1860.6 59.2931 1861.79 59.6136 1862.37 60.6232C1862.96 61.6328 1862.55 62.8752 1861.63 63.4089Z" fill="#FFCF2D"/>
<path d="M1870.32 78.4685C1869.31 79.0507 1868.12 78.7303 1867.54 77.7207C1866.95 76.7111 1867.27 75.5172 1868.28 74.935C1869.29 74.3527 1870.48 74.6732 1871.07 75.6828C1871.65 76.6924 1871.25 77.9348 1870.32 78.4685Z" fill="#FFCF2D"/>
<path d="M1879.02 93.5281C1878.01 94.1103 1876.82 93.7898 1876.23 92.7802C1875.65 91.7707 1875.97 90.5768 1876.98 89.9945C1877.99 89.4123 1879.18 89.7328 1879.76 90.7423C1880.3 91.6678 1879.94 92.9943 1879.02 93.5281Z" fill="#FFCF2D"/>
<path d="M1887.71 108.588C1886.7 109.17 1885.51 108.849 1884.93 107.84C1884.34 106.83 1884.66 105.636 1885.67 105.054C1886.68 104.472 1887.87 104.792 1888.46 105.802C1889.04 106.811 1888.64 108.054 1887.71 108.588Z" fill="#FFCF2D"/>
<path d="M1896.36 123.563C1895.35 124.145 1894.16 123.825 1893.57 122.815C1892.99 121.806 1893.31 120.612 1894.32 120.03C1895.33 119.447 1896.52 119.768 1897.1 120.778C1897.69 121.787 1897.28 123.029 1896.36 123.563Z" fill="#FFCF2D"/>
<path d="M1905.05 138.623C1904.04 139.205 1902.85 138.885 1902.27 137.875C1901.68 136.865 1902 135.672 1903.01 135.089C1904.02 134.507 1905.21 134.827 1905.8 135.837C1906.38 136.847 1905.98 138.089 1905.05 138.623Z" fill="#FFCF2D"/>
<path d="M1913.75 153.682C1912.74 154.265 1911.55 153.944 1910.96 152.935C1910.38 151.925 1910.7 150.731 1911.71 150.149C1912.72 149.567 1913.91 149.887 1914.49 150.897C1915.03 151.822 1914.67 153.149 1913.75 153.682Z" fill="#FFCF2D"/>
<path d="M1831.77 40.6033C1830.76 41.1855 1829.56 40.865 1828.98 39.8554C1828.4 38.8459 1828.72 37.652 1829.73 37.0697C1830.73 36.4875 1831.93 36.808 1832.51 37.8175C1833.09 38.8271 1832.77 40.021 1831.77 40.6033Z" fill="#FFCF2D"/>
<path d="M1840.46 55.6628C1839.45 56.2451 1838.26 55.9246 1837.68 54.915C1837.09 53.9054 1837.41 52.7116 1838.42 52.1293C1839.43 51.547 1840.62 51.8675 1841.2 52.8771C1841.74 53.8026 1841.47 55.0806 1840.46 55.6628Z" fill="#FFCF2D"/>
<path d="M1849.11 70.6384C1848.1 71.2207 1846.9 70.9002 1846.32 69.8906C1845.74 68.881 1846.06 67.6871 1847.07 67.1049C1848.07 66.5226 1849.27 66.8431 1849.85 67.8527C1850.43 68.8623 1850.11 70.0562 1849.11 70.6384Z" fill="#FFCF2D"/>
<path d="M1855.02 84.9502C1855.58 85.9259 1856.83 86.2607 1857.8 85.698C1858.78 85.1352 1859.11 83.888 1858.55 82.9123C1857.98 81.9365 1856.74 81.6017 1855.76 82.1645C1854.79 82.7272 1854.45 83.9744 1855.02 84.9502Z" fill="#FFCF2D"/>
<path d="M1866.5 100.758C1865.49 101.34 1864.29 101.019 1863.71 100.01C1863.13 99.0002 1863.45 97.8063 1864.46 97.224C1865.46 96.6418 1866.66 96.9623 1867.24 97.9718C1867.77 98.8973 1867.5 100.175 1866.5 100.758Z" fill="#FFCF2D"/>
<path d="M1875.19 115.817C1874.18 116.399 1872.99 116.079 1872.41 115.069C1871.82 114.06 1872.14 112.866 1873.15 112.284C1874.16 111.701 1875.35 112.022 1875.93 113.031C1876.52 114.041 1876.2 115.235 1875.19 115.817Z" fill="#FFCF2D"/>
<path d="M1883.84 130.793C1882.83 131.375 1881.63 131.054 1881.05 130.045C1880.47 129.035 1880.79 127.841 1881.8 127.259C1882.8 126.677 1884 126.997 1884.58 128.007C1885.16 129.017 1884.84 130.21 1883.84 130.793Z" fill="#FFCF2D"/>
<path d="M1889.75 145.104C1890.31 146.08 1891.56 146.415 1892.53 145.852C1893.51 145.29 1893.84 144.042 1893.28 143.067C1892.71 142.091 1891.47 141.756 1890.49 142.319C1889.52 142.881 1889.18 144.129 1889.75 145.104Z" fill="#FFCF2D"/>
<path d="M1901.23 160.912C1900.22 161.494 1899.02 161.174 1898.44 160.164C1897.86 159.154 1898.18 157.961 1899.19 157.378C1900.19 156.796 1901.39 157.117 1901.97 158.126C1902.5 159.052 1902.23 160.33 1901.23 160.912Z" fill="#FFCF2D"/>
<path d="M1819.24 47.8337C1818.23 48.416 1817.04 48.0955 1816.46 47.0859C1815.88 46.0763 1816.19 44.8825 1817.2 44.3002C1818.21 43.7179 1819.4 44.0384 1819.99 45.048C1820.57 46.0576 1820.25 47.2515 1819.24 47.8337Z" fill="#FFCF2D"/>
<path d="M1827.94 62.8933C1826.93 63.4755 1825.74 63.1551 1825.15 62.1455C1824.57 61.1359 1824.89 59.942 1825.9 59.3598C1826.91 58.7775 1828.1 59.098 1828.68 60.1076C1829.22 61.033 1828.95 62.311 1827.94 62.8933Z" fill="#FFCF2D"/>
<path d="M1836.58 77.8689C1835.58 78.4511 1834.38 78.1306 1833.8 77.1211C1833.22 76.1115 1833.53 74.9176 1834.54 74.3354C1835.55 73.7531 1836.75 74.0736 1837.33 75.0832C1837.91 76.0927 1837.59 77.2866 1836.58 77.8689Z" fill="#FFCF2D"/>
<path d="M1845.28 92.9285C1844.27 93.5107 1843.08 93.1902 1842.49 92.1806C1841.91 91.1711 1842.23 89.9772 1843.24 89.3949C1844.25 88.8127 1845.44 89.1332 1846.02 90.1427C1846.61 91.1523 1846.29 92.3462 1845.28 92.9285Z" fill="#FFCF2D"/>
<path d="M1853.97 107.988C1852.96 108.57 1851.77 108.25 1851.19 107.24C1850.61 106.231 1850.92 105.037 1851.93 104.454C1852.94 103.872 1854.13 104.193 1854.72 105.202C1855.25 106.128 1854.98 107.406 1853.97 107.988Z" fill="#FFCF2D"/>
<path d="M1862.67 123.048C1861.66 123.63 1860.47 123.309 1859.88 122.3C1859.3 121.29 1859.62 120.096 1860.63 119.514C1861.64 118.932 1862.83 119.252 1863.41 120.262C1864 121.271 1863.68 122.465 1862.67 123.048Z" fill="#FFCF2D"/>
<path d="M1871.31 138.022C1870.31 138.604 1869.11 138.284 1868.53 137.274C1867.95 136.265 1868.26 135.071 1869.27 134.489C1870.28 133.906 1871.48 134.227 1872.06 135.236C1872.64 136.246 1872.32 137.44 1871.31 138.022Z" fill="#FFCF2D"/>
<path d="M1880.01 153.082C1879 153.664 1877.81 153.344 1877.22 152.334C1876.64 151.324 1876.96 150.131 1877.97 149.548C1878.98 148.966 1880.17 149.286 1880.75 150.296C1881.34 151.306 1881.02 152.5 1880.01 153.082Z" fill="#FFCF2D"/>
<path d="M1888.7 168.141C1887.69 168.724 1886.5 168.403 1885.92 167.394C1885.34 166.384 1885.65 165.19 1886.66 164.608C1887.67 164.026 1888.86 164.346 1889.45 165.356C1889.98 166.281 1889.71 167.559 1888.7 168.141Z" fill="#FFCF2D"/>
<path d="M1806.8 55.0144C1805.8 55.5966 1804.6 55.2762 1804.02 54.2666C1803.44 53.257 1803.76 52.0631 1804.76 51.4809C1805.77 50.8986 1806.97 51.2191 1807.55 52.2287C1808.13 53.2383 1807.73 54.4807 1806.8 55.0144Z" fill="#FFCF2D"/>
<path d="M1815.5 70.074C1814.49 70.6562 1813.3 70.3357 1812.71 69.3261C1812.13 68.3166 1812.45 67.1227 1813.46 66.5404C1814.47 65.9582 1815.66 66.2787 1816.24 67.2882C1816.78 68.2137 1816.42 69.5402 1815.5 70.074Z" fill="#FFCF2D"/>
<path d="M1824.15 85.0495C1823.14 85.6318 1821.94 85.3113 1821.36 84.3017C1820.78 83.2921 1821.1 82.0983 1822.11 81.516C1823.11 80.9338 1824.31 81.2543 1824.89 82.2638C1825.47 83.2734 1825.07 84.5158 1824.15 85.0495Z" fill="#FFCF2D"/>
<path d="M1832.84 100.109C1831.83 100.691 1830.64 100.371 1830.06 99.3613C1829.47 98.3517 1829.79 97.1578 1830.8 96.5756C1831.81 95.9933 1833 96.3138 1833.58 97.3234C1834.17 98.333 1833.76 99.5754 1832.84 100.109Z" fill="#FFCF2D"/>
<path d="M1841.53 115.169C1840.53 115.751 1839.33 115.43 1838.75 114.421C1838.17 113.411 1838.49 112.217 1839.49 111.635C1840.5 111.053 1841.7 111.373 1842.28 112.383C1842.81 113.308 1842.46 114.635 1841.53 115.169Z" fill="#FFCF2D"/>
<path d="M1850.23 130.228C1849.22 130.811 1848.03 130.49 1847.44 129.48C1846.86 128.471 1847.18 127.277 1848.19 126.695C1849.2 126.112 1850.39 126.433 1850.97 127.443C1851.56 128.452 1851.15 129.695 1850.23 130.228Z" fill="#FFCF2D"/>
<path d="M1858.88 145.204C1857.87 145.786 1856.67 145.466 1856.09 144.456C1855.51 143.446 1855.83 142.253 1856.84 141.67C1857.84 141.088 1859.04 141.409 1859.62 142.418C1860.2 143.428 1859.8 144.67 1858.88 145.204Z" fill="#FFCF2D"/>
<path d="M1867.57 160.263C1866.56 160.846 1865.37 160.525 1864.79 159.516C1864.2 158.506 1864.52 157.312 1865.53 156.73C1866.54 156.148 1867.73 156.468 1868.31 157.478C1868.9 158.487 1868.49 159.73 1867.57 160.263Z" fill="#FFCF2D"/>
<path d="M1876.26 175.323C1875.26 175.905 1874.06 175.585 1873.48 174.575C1872.9 173.566 1873.22 172.372 1874.22 171.789C1875.23 171.207 1876.43 171.528 1877.01 172.537C1877.54 173.463 1877.19 174.789 1876.26 175.323Z" fill="#FFCF2D"/>
</g>
<g opacity="0.2">
<path d="M118.708 677.152C128.818 677.152 137.054 668.984 137.054 658.956C137.054 648.929 128.818 640.76 118.708 640.76L118.708 677.152Z" fill="#FFCF2D"/>
<path d="M90.0876 677.152C100.198 677.152 108.433 668.984 108.433 658.956C108.433 648.929 100.198 640.76 90.0876 640.76L90.0876 677.152Z" fill="#FFCF2D"/>
<path d="M61.467 677.152C71.5771 677.152 79.8128 668.984 79.8128 658.956C79.8128 648.929 71.5771 640.76 61.467 640.76L61.467 677.152Z" fill="#FFCF2D"/>
</g>
<defs>
<clipPath id="clip0_2492_17662">
<rect width="143" height="105" fill="white" transform="translate(1893.93) rotate(60)"/>
</clipPath>
</defs>
</svg>
